<?xml version="1.0" encoding="UTF-8"?>
<!DOCTYPE svg PUBLIC "-//W3C//DTD SVG 1.1//EN" "http://www.w3.org/Graphics/SVG/1.1/DTD/svg11.dtd">
<!-- Creator: CorelDRAW X7 -->
<svg xmlns="http://www.w3.org/2000/svg" xml:space="preserve" width="23.4175in" height="6.00188in" version="1.1" style="shape-rendering:geometricPrecision; text-rendering:geometricPrecision; image-rendering:optimizeQuality; fill-rule:evenodd; clip-rule:evenodd"
viewBox="0 0 23347 5984"
 xmlns:xlink="http://www.w3.org/1999/xlink">
 <defs>
  <style type="text/css">
   <![CDATA[
    .fil0 {fill:url(#id0)}
   ]]>
  </style>
  <linearGradient id="id0" gradientUnits="userSpaceOnUse" x1="7215.78" y1="6561.44" x2="16131.4" y2="-577.587">
   <stop offset="0" style="stop-opacity:1; stop-color:#5DB5E5"/>
   <stop offset="1" style="stop-opacity:1; stop-color:#8293FF"/>
  </linearGradient>
 </defs>
 <g id="Layer_x0020_1">
  <metadata id="CorelCorpID_0Corel-Layer"/>
  <path class="fil0" d="M1352 0c400,0 734,181 1001,543l13 52 0 75c0,105 -79,171 -236,196 -173,0 -519,-641 -1109,-322 -332,179 -486,645 -295,976 210,367 824,382 1278,682 335,221 552,687 552,1083 0,452 -194,822 -583,1111 -237,164 -500,246 -788,246 -467,0 -853,-202 -1159,-605l-26 -102c29,-155 107,-232 236,-232 86,0 197,86 333,259 201,140 386,210 555,210l109 0c714,0 1105,-962 665,-1452 -412,-461 -1430,-368 -1666,-1152 -182,-605 58,-1160 639,-1468 171,-67 332,-100 481,-100zm13331 1871l-475 0 -95 0 -46 0 0 2577c0,181 -463,356 -463,-70l0 -2507 -444 0c-181,0 -356,-463 71,-463l373 0 0 -543 0 -18 0 -62 0 -62 0 -62 0 -62 0 -62 0 -62 0 -62c48,-424 463,-252 463,-70l0 64 0 64 0 64 0 64 0 64 0 65 0 64 0 64 0 9 0 543 46 0 95 0 404 0c425,49 252,463 71,463zm8228 1885c226,0 371,134 436,404l0 77c0,162 -103,289 -310,381 -30,16 -72,24 -126,24l-13 0c-241,0 -386,-150 -436,-450 0,-190 108,-327 323,-413 30,-16 72,-23 126,-23zm-2561 -2407c422,0 803,158 1146,477 326,345 489,731 489,1159 0,613 -291,1096 -872,1446 -252,127 -496,191 -730,191l-97 0c-379,0 -750,-163 -1111,-491l0 1650c0,100 -79,169 -238,203 -114,0 -189,-79 -225,-239l0 -2653c0,-826 391,-1384 1173,-1673 97,-29 251,-53 465,-70zm-1162 1601l0 61c0,435 212,773 634,1015 153,80 316,120 491,120l71 0c455,0 802,-235 1041,-704 56,-149 84,-292 84,-431l0 -61c0,-365 -168,-671 -501,-921 -199,-136 -422,-204 -673,-204 -494,0 -857,260 -1085,779 -41,127 -62,242 -62,346zm-3775 -1621c153,39 229,108 229,206l0 1295c0,552 157,923 472,1113 201,153 424,229 670,229 470,0 825,-242 1065,-726 50,-156 74,-314 74,-471l0 -1404c32,-162 112,-242 241,-242 152,34 228,111 228,229l0 2878c0,106 -76,176 -228,206l-13 0c-152,-28 -228,-104 -228,-228l0 -229 -13 0c-337,305 -699,457 -1089,457l-85 0c-501,0 -938,-246 -1308,-739 -171,-264 -256,-590 -256,-977l0 -1319c20,-185 99,-278 241,-278zm-4995 228c551,-319 1131,-304 1740,43 222,145 403,338 542,578l31 53c56,155 31,263 -77,325l-2207 1274c243,231 544,342 902,333 196,-30 363,-86 503,-167 162,-93 318,-253 466,-477l62 -36c139,-48 237,-20 296,82l18 30c99,171 -84,434 -548,789l-72 42c-515,296 -1066,294 -1653,-9 -256,-155 -456,-357 -599,-606 -303,-524 -297,-1085 20,-1683 171,-258 363,-448 576,-571zm-239 1886l2010 -1161c-83,-144 -274,-281 -573,-412 -355,-84 -643,-61 -867,68l-114 66c-336,194 -517,517 -544,970 1,174 30,330 88,469zm-3264 -1886c552,-319 1132,-304 1741,43 222,145 403,338 542,578l31 53c56,155 30,263 -78,325l-2206 1274c243,231 544,342 901,333 196,-30 364,-86 503,-167 162,-93 318,-253 466,-477l62 -36c139,-48 238,-20 297,82l18 30c98,171 -84,434 -548,789l-72 42c-515,296 -1066,294 -1654,-9 -256,-155 -455,-357 -599,-606 -302,-524 -296,-1085 20,-1683 172,-258 363,-448 576,-571zm-238 1886l2010 -1161c-84,-144 -274,-281 -573,-412 -355,-84 -644,-61 -867,68l-114 66c-336,194 -517,517 -545,970 2,174 31,330 89,469zm-3613 -3417l48 0c147,30 220,95 220,194l-1 1488c312,-270 646,-405 1002,-405 542,0 977,255 1302,768 122,228 184,444 184,647l0 1704c0,120 -79,194 -234,220l-9 0c-117,0 -195,-73 -233,-220l0 -1633c0,-438 -227,-755 -681,-949 -110,-32 -220,-48 -329,-48 -452,0 -769,240 -952,719 -32,104 -49,274 -49,511l0 1400c0,120 -78,194 -233,220l-9 0c-117,0 -195,-73 -234,-220l0 -4166c32,-154 102,-230 208,-230z"/>
 </g>
</svg>
