<?xml version="1.0" encoding="UTF-8"?>
<!DOCTYPE svg PUBLIC "-//W3C//DTD SVG 1.1//EN" "http://www.w3.org/Graphics/SVG/1.1/DTD/svg11.dtd">
<!-- Creator: CorelDRAW X7 -->
<svg xmlns="http://www.w3.org/2000/svg" xml:space="preserve" width="7.27681in" height="7.28429in" version="1.1" style="shape-rendering:geometricPrecision; text-rendering:geometricPrecision; image-rendering:optimizeQuality; fill-rule:evenodd; clip-rule:evenodd"
viewBox="0 0 2254 2257"
 xmlns:xlink="http://www.w3.org/1999/xlink">
 <defs>
  <style type="text/css">
   <![CDATA[
    .fil1 {fill:white}
    .fil0 {fill:url(#id0)}
   ]]>
  </style>
  <linearGradient id="id0" gradientUnits="userSpaceOnUse" x1="483.761" y1="1643.64" x2="1770.67" y2="613.166">
   <stop offset="0" style="stop-opacity:1; stop-color:#5DB5E5"/>
   <stop offset="1" style="stop-opacity:1; stop-color:#8293FF"/>
  </linearGradient>
 </defs>
 <g id="Layer_x0020_1">
  <metadata id="CorelCorpID_0Corel-Layer"/>
  <path class="fil0" d="M1934 1914l280 338 -253 0c-287,1 -574,9 -861,2 -612,-14 -1100,-515 -1100,-1127 0,-622 505,-1127 1127,-1127 623,0 1127,505 1127,1127 0,299 -117,580 -320,787z"/>
  <path class="fil1" d="M1231 375l-153 331 -38 -66 -219 126c-36,21 -62,49 -78,87 -16,40 -1,81 19,117 21,35 50,69 92,75 41,6 79,-2 114,-23l143 -82c47,-27 97,-45 150,-53 53,-8 105,-6 156,7 52,12 100,36 143,68 47,35 84,81 114,132 29,50 50,106 57,164 6,54 3,107 -12,158 -14,52 -38,98 -71,140 -34,42 -75,77 -121,104l-362 209c-25,14 -52,19 -79,12 -28,-7 -48,-26 -62,-50l-31 -53c-14,-25 -20,-52 -13,-79 8,-28 26,-49 51,-63l307 -177 31 55 153 -331 -363 -33 31 54 -88 50c-46,27 -97,45 -150,53 -52,8 -105,6 -156,-8 -52,-13 -100,-37 -143,-69 -47,-35 -85,-80 -114,-131 -30,-51 -51,-107 -57,-165 -6,-53 -3,-106 12,-158 15,-50 39,-97 72,-138 34,-42 74,-77 121,-104l219 -126 -38 -66 363 33z"/>
 </g>
</svg>
